<svg width="282" height="74" fill="none" xmlns="http://www.w3.org/2000/svg"><path d="M59.27 6.74l-2.558 16.329h-8.296l-.691 4.655 5.6 23.972h8.78l-5.67-23.416c2.766 0 4.633-.14 5.531-.487 1.729-.625 2.697-2.015 3.042-4.238l2.904-18.76c.484-3.197-.968-4.726-4.356-4.726h-22.33l-7.95 51.557h8.434L48.623 6.67l10.647.07zm5.254 44.956h8.296L76 41.899h10.578l.208 9.797h8.365L92.247 0h-8.849L64.524 51.626v.07zM85.887 12.09l.553 23.277h-8.227l7.674-23.277zm25.856 10.979c.138-.904.138-2.154 0-3.753l8.504 32.519h7.397L135.595.278h-8.227l-4.287 28.071c-.138.904-.138 2.154 0 3.752L114.37.278h-7.397l-7.95 51.557h8.226l4.494-28.767zm54.616-20.081c-1.728-1.737-4.217-2.64-7.535-2.64l-17.146-.07-7.95 51.557 17.145.07c3.319 0 6.153-.835 8.366-2.572 2.212-1.737 3.595-4.1 4.079-7.157l4.908-32.1c.415-2.92-.207-5.351-1.867-7.088zm-6.844 8.338l-4.563 29.6c-.415 2.918-2.419 4.377-5.807 4.377h-6.015l5.877-38.355h6.291c3.249 0 4.701 1.46 4.217 4.378zm105.27 5.697L261.744.208h-8.988c-.069.07 1.936 8.477 6.015 25.223l-14.518 26.126-.07.278h8.988l8.987-18.135 3.388 18.204h9.126l-6.43-26.612L281.931.625 282 .347h-8.918l-8.297 16.676zm-48.74 24.737c-.069-.626-.069-2.78-.069-3.614 0-.764.069-1.25-.207-1.25-.346-.07-.346.834-.346 2.084s-.069 2.64.139 3.058c.207.347.553.347.483-.278z" fill="#fff"/><path d="M228.836.139l-22.331-.07-7.95 51.557h3.595c-.277-.278-.553-.695-.761-1.181-.346-.903-.622-1.737-.276-2.015.345-.347.691-.278 1.106.208.345.348.76.487.968.487-.623-1.876-.415-4.03-.208-5.49.208-1.598.553-5.072 1.729-9.31 1.313-4.656 3.111-8.2 4.286-10.353 1.175-2.154 1.728-5.906 1.728-5.906v-.14c.069-.555.139-.972.139-1.389.138-1.39.483-3.405.898-4.238v-.278c0-.487-.207-.765-.138-1.53.138-.833.346-1.18.83-1.806.484-.694.484-.972.484-1.459.069-.486.207-.556.484-.347.276.208.622 1.25.691 1.945.069.348 0 .626-.069.904.345.139.968.139 1.382 0 .07-.209.139-.487.277-.695.277-.487.553-.904.691-1.181.139-.348.069-.695.346-.626.207 0 .346.834.346 1.25 0 .348-.277.904-.277 1.252.208.139.484.139.761.07.414 0 1.175.069 1.728.624.484.556.346.695 1.521.904 1.175.139 2.696.208 2.973.486.276.209.207.764.138.903-.069.14 0 .487 0 1.112 0 .626-.553 1.529-1.106 1.737-.622.209-.968.209-1.314.348-.345.139-.415.347-.968.278-.622-.07-1.659-.278-2.35.694-.346.487-.553.904-.692 1.39a9.52 9.52 0 00-.138 1.46c0 .833.069 3.195.761 5.002.691 1.876 1.106 2.849 1.244 5.35.138 2.502-.346 4.17-.968 5.212-.553.972-.553 3.126-.622 5.975-.069 2.849 0 5.35.069 6.323 0 .556.069 1.32.138 1.946.07.278.208.555.346.834.069.208.207.277.415.277.346 0 .622.07.968.07.207 0 .415.07.553.278.069.07.069.139.138.139l.691.695h6.153l-5.669-23.416c2.766 0 4.632-.14 5.531-.487 1.729-.625 2.696-2.015 3.042-4.238l2.904-18.76c.622-3.197-.83-4.795-4.217-4.795zm11.061 0l-7.951 51.626h8.435l7.95-51.557-8.434-.07zM196.135.07L174.081 0l-7.951 51.557h8.435l2.903-18.691h13.62c3.457 0 5.392-1.598 5.876-4.795l3.595-23.346c.484-3.057-1.037-4.656-4.424-4.656zm-7.398 26.264h-10.301l3.042-19.664h10.301l-3.042 19.664zM31.478 24.041l-14.726-.07-.968 6.602h6.292l-2.213 14.452H8.871L14.747 6.67H25.74l-1.383 9.103h8.434l1.66-10.979C34.935 1.598 33.483.07 30.026.07L12.396 0C9.01 0 7.074 1.598 6.59 4.725L.09 46.832c-.483 3.127.969 4.725 4.287 4.725l17.699.07c3.456 0 5.392-1.53 5.876-4.726l3.526-22.86zm139.353 40.787c-.138.834-.622 1.25-1.451 1.25h-3.388l-.76 4.865h-2.074l2.143-13.341h5.461c.83 0 1.245.417 1.107 1.25l-1.038 5.976zm-2.074-.486l.83-5.072h-2.558l-.83 5.072h2.558zm8.988 1.528h-2.005l.346-1.945h-1.59l-1.107 6.948h-2.074l1.383-8.616h2.074l-.069.348c.415-.07.899-.14 1.314-.209.553-.07.967-.139 1.313-.139.761 0 1.037.348.968 1.043l-.553 2.57zm6.291 3.961c-.138.695-.553 1.042-1.313 1.042h-3.526c-.761 0-1.106-.347-.968-1.042l1.037-6.462c.138-.695.553-1.042 1.313-1.042h3.526c.761 0 1.106.347.968 1.042l-.484 3.196-.622.556h-3.318l-.415 2.432h1.936l.207-1.46h1.936l-.277 1.738zm-1.244-4.1l.345-2.084h-1.935l-.346 2.084h1.936zm12.513 5.142H193.3l1.106-7.018h-1.935l-1.107 6.949h-2.004l1.106-7.018h-1.936l-1.106 6.948h-2.074l1.382-8.616h2.074l-.069.348 1.452-.209c.622-.07 1.106-.139 1.452-.139.484 0 .76.14.83.417.484-.07 1.037-.139 1.521-.208.691-.07 1.175-.14 1.521-.14.76 0 1.037.348.967 1.043l-1.175 7.643zm3.526 0h-2.005l1.383-8.616h2.005l-1.383 8.616zm1.659-9.866h-2.074l.346-2.015h2.074l-.346 2.015zm5.877 9.866h-2.005l.069-.278-1.452.209c-.622.07-1.106.139-1.452.139-.76 0-1.037-.348-.968-1.043l1.245-7.643h2.005l-1.106 7.018 1.935-.07 1.106-6.948h2.005l-1.382 8.616zm11.476 0h-2.005l1.106-7.018h-1.936l-1.106 6.949h-2.074l1.106-7.018h-1.935l-1.106 6.948h-2.075l1.383-8.616h2.074l-.069.348 1.452-.209c.622-.07 1.106-.139 1.452-.139.484 0 .76.14.829.417.484-.07 1.037-.139 1.521-.208.692-.07 1.176-.14 1.521-.14.761 0 1.037.348.968 1.043l-1.106 7.643zm11.476-1.737c-.138.695-.484 1.181-1.037 1.46-.414.208-1.037.277-1.797.277h-1.452L224.549 74h-2.074l1.867-11.812h2.074l-.069.347 1.451-.208c.623-.07 1.107-.14 1.452-.14.761 0 1.037.348.968 1.043l-.899 5.906zm-1.935-.486l.76-4.725h-1.936l-.829 5.35h1.244c.415 0 .691-.208.761-.625zm9.125 1.181c-.138.695-.553 1.042-1.313 1.042h-3.526c-.761 0-1.106-.347-.968-1.042l1.037-6.462c.138-.695.553-1.042 1.314-1.042h3.525c.761 0 1.107.347.968 1.042l-.484 3.196-.622.556h-3.318l-.415 2.432h1.936l.207-1.46h1.936l-.277 1.738zm-1.313-4.1l.345-2.084h-1.935l-.346 2.084h1.936zm6.568 5.142h-2.282c-.76 0-1.106-.347-.968-1.042l.968-5.906h-.968l.277-1.668h.968l.345-2.362h2.005l-.345 2.362h1.313l-.276 1.668h-1.314l-.83 5.28h1.383l-.276 1.668zM252.479 59.2h-1.521l-.484 3.057h1.314l-.276 1.668h-1.314l-1.106 6.948h-2.005l1.106-6.948h-.899l.277-1.668h.899l.622-3.682c.138-.695.553-1.043 1.313-1.043h2.42l-.346 1.668zm4.978 10.631c-.138.695-.553 1.042-1.313 1.042h-3.665c-.76 0-1.106-.347-.967-1.042l1.037-6.462c.138-.695.553-1.042 1.313-1.042h3.664c.761 0 1.106.347.968 1.042l-1.037 6.462zm-1.867-.556l.83-5.35h-1.936l-.829 5.35h1.935zm9.334.556c-.139.695-.553 1.042-1.314 1.042h-3.664c-.761 0-1.106-.347-.968-1.042l1.037-6.462c.138-.695.553-1.042 1.314-1.042h3.664c.76 0 1.106.347.968 1.042l-1.037 6.462zm-1.936-.556l.829-5.35h-1.935l-.83 5.35h1.936zm9.195 1.598h-2.005l.069-.278c-1.452.209-2.212.348-2.351.348-.484 0-.898-.14-1.106-.417-.276-.278-.345-.695-.276-1.181l.829-5.35c.139-.695.484-1.182 1.037-1.46.415-.208 1.037-.278 1.798-.278h1.452l.76-4.725h2.005l-2.212 13.341zm-1.729-1.667l.83-5.281h-1.244c-.484 0-.692.208-.761.625l-.691 4.1c-.069.417.138.625.553.625.069 0 .484 0 1.313-.07z" fill="#fff"/></svg>