<svg width="17" height="13" viewBox="0 0 17 13" fill="none" xmlns="http://www.w3.org/2000/svg">
<path d="M14.9823 0H2.01775C0.905173 0 0 0.875201 0 1.95094V11.0491C0 12.1248 0.905173 13 2.01775 13H14.9823C16.0949 13 17 12.1248 17 11.0491V1.95094C17 0.875201 16.0949 0 14.9823 0ZM14.9823 11.2776H2.01775C1.85421 11.2776 1.71078 11.1709 1.71078 11.0491V3.15402L7.5743 8.13808C7.69451 8.2403 7.84737 8.29656 8.00477 8.29656L8.99505 8.29661C9.15236 8.29661 9.30532 8.2403 9.42557 8.13808L15.2894 3.15384V11.0492C15.2893 11.1709 15.1458 11.2776 14.9823 11.2776ZM8.50002 6.58638L2.79702 1.72236H14.203L8.50002 6.58638Z" fill="#453E8D"/>
</svg>
