<svg width="282" height="74" viewBox="0 0 282 74" fill="none" xmlns="http://www.w3.org/2000/svg">
<path d="M59.2701 6.7399L56.7121 23.0685H48.4159L47.7246 27.7239L53.3245 51.6958H62.1046L56.4355 28.2798C59.2009 28.2798 61.0676 28.1408 61.9663 27.7934C63.6947 27.1681 64.6626 25.7784 65.0082 23.5549L67.9119 4.79436C68.3958 1.59812 66.944 0.0694835 63.5564 0.0694835H41.2259L33.2755 51.6263H41.7099L48.6233 6.67042L59.2701 6.7399Z" fill="white"/>
<path d="M64.5243 51.6958H72.8204L76.0006 41.8986H86.5782L86.7856 51.6958H95.1509L92.2472 0H83.398L64.5243 51.6263V51.6958ZM85.8869 12.0901L86.4399 35.3671H78.2129L85.8869 12.0901Z" fill="white"/>
<path d="M111.743 23.0685C111.881 22.1652 111.881 20.9145 111.743 19.3164L120.247 51.8347H127.644L135.595 0.277934H127.368L123.081 28.3493C122.943 29.2526 122.943 30.5033 123.081 32.1014L114.37 0.277934H106.973L99.0224 51.8347H107.249L111.743 23.0685Z" fill="white"/>
<path d="M166.359 2.98779C164.631 1.2507 162.142 0.347418 158.824 0.347418L141.678 0.277934L133.728 51.8347L150.873 51.9042C154.192 51.9042 157.026 51.0704 159.239 49.3333C161.451 47.5962 162.834 45.2338 163.318 42.1765L168.226 10.0751C168.641 7.1568 168.019 4.72488 166.359 2.98779ZM159.515 11.3258L154.952 40.9258C154.537 43.8441 152.533 45.3033 149.145 45.3033H143.13L149.007 6.94835H155.298C158.547 6.94835 159.999 8.40751 159.515 11.3258Z" fill="white"/>
<path d="M264.785 17.0235L261.744 0.208485H252.756C252.687 0.277968 254.692 8.68548 258.771 25.431L244.253 51.5568L244.183 51.8347H253.171L262.158 33.6996L265.546 51.9042H274.672L268.242 25.292L281.931 0.625385L282 0.347455H273.082L264.785 17.0235Z" fill="white"/>
<path d="M216.045 41.7595C215.976 41.1342 215.976 38.9802 215.976 38.1464C215.976 37.3821 216.045 36.8957 215.769 36.8957C215.423 36.8262 215.423 37.7295 215.423 38.9802C215.423 40.2309 215.354 41.6206 215.562 42.0375C215.769 42.3849 216.115 42.3849 216.045 41.7595Z" fill="white"/>
<path d="M228.836 0.138864L206.505 0.0693818L198.555 51.6262H202.15C201.873 51.3482 201.597 50.9313 201.389 50.4449C201.043 49.5417 200.767 48.7079 201.113 48.4299C201.458 48.0825 201.804 48.152 202.219 48.6384C202.564 48.9858 202.979 49.1248 203.187 49.1248C202.564 47.2487 202.772 45.0947 202.979 43.6356C203.187 42.0374 203.532 38.5633 204.708 34.3248C206.021 29.6694 207.819 26.1257 208.994 23.9717C210.169 21.8177 210.722 18.0656 210.722 18.0656C210.722 18.0656 210.722 17.9961 210.722 17.9266C210.791 17.3708 210.861 16.9539 210.861 16.537C210.999 15.1473 211.344 13.1323 211.759 12.2985C211.759 12.229 211.759 12.09 211.759 12.0205C211.759 11.5342 211.552 11.2562 211.621 10.4919C211.759 9.65811 211.967 9.31069 212.451 8.68534C212.935 7.99051 212.935 7.71257 212.935 7.22618C213.004 6.7398 213.142 6.67031 213.419 6.87877C213.695 7.08722 214.041 8.12947 214.11 8.82431C214.179 9.17172 214.11 9.44966 214.041 9.72759C214.386 9.86656 215.009 9.86656 215.423 9.72759C215.493 9.51914 215.562 9.24121 215.7 9.03276C215.977 8.54637 216.253 8.12947 216.391 7.85154C216.53 7.50412 216.46 7.1567 216.737 7.22618C216.944 7.22618 217.083 8.05999 217.083 8.47689C217.083 8.82431 216.806 9.38018 216.806 9.72759C217.014 9.86656 217.29 9.86656 217.567 9.79708C217.981 9.79708 218.742 9.86656 219.295 10.4224C219.779 10.9783 219.641 11.1173 220.816 11.3257C221.991 11.4647 223.512 11.5342 223.789 11.8121C224.065 12.0206 223.996 12.5764 223.927 12.7154C223.858 12.8544 223.927 13.2018 223.927 13.8271C223.927 14.4525 223.374 15.3558 222.821 15.5642C222.199 15.7727 221.853 15.7727 221.507 15.9116C221.162 16.0506 221.092 16.259 220.539 16.1896C219.917 16.1201 218.88 15.9116 218.189 16.8844C217.843 17.3708 217.636 17.7877 217.497 18.2741C217.428 18.691 217.359 19.2468 217.359 19.7332C217.359 20.567 217.428 22.9295 218.12 24.736C218.811 26.6121 219.226 27.5849 219.364 30.0863C219.502 32.5877 219.018 34.2553 218.396 35.2975C217.843 36.2703 217.843 38.4243 217.774 41.2731C217.705 44.1219 217.774 46.6234 217.843 47.5961C217.843 48.152 217.912 48.9163 217.981 49.5417C218.051 49.8196 218.189 50.0975 218.327 50.3755C218.396 50.5839 218.534 50.6534 218.742 50.6534C219.088 50.6534 219.364 50.7229 219.71 50.7229C219.917 50.7229 220.125 50.7924 220.263 51.0008C220.332 51.0703 220.332 51.1398 220.401 51.1398C220.609 51.3482 220.885 51.6262 221.092 51.8346H227.245L221.576 28.4187C224.342 28.4187 226.208 28.2797 227.107 27.9323C228.836 27.3069 229.803 25.9173 230.149 23.6938L233.053 4.93323C233.675 1.73699 232.223 0.138864 228.836 0.138864Z" fill="white"/>
<path d="M239.897 0.138933L231.946 51.7652H240.381L248.331 0.208416L239.897 0.138933Z" fill="white"/>
<path d="M196.135 0.0694825L174.081 0L166.13 51.5568H174.565L177.468 32.8657H191.088C194.545 32.8657 196.48 31.2676 196.964 28.0713L200.559 4.72488C201.043 1.6676 199.522 0.0694825 196.135 0.0694825ZM188.737 26.3343H178.436L181.478 6.67042H191.779L188.737 26.3343Z" fill="white"/>
<path d="M31.478 24.0413L16.7523 23.9718L15.7844 30.5728H22.0757L19.8634 45.0253H8.87096L14.7474 6.67042H25.7398L24.3571 15.7728H32.7915L34.4507 4.79436C34.9347 1.59812 33.4829 0.0694835 30.0261 0.0694835L12.3968 0C9.00923 0 7.07346 1.59812 6.58952 4.72488L0.0908746 46.8319C-0.393067 49.9587 1.05876 51.5568 4.37722 51.5568L22.0757 51.6263C25.5324 51.6263 27.4682 50.0976 27.9521 46.9014L31.478 24.0413Z" fill="white"/>
<path d="M170.831 64.8282C170.693 65.662 170.209 66.0789 169.38 66.0789H165.992L165.232 70.9427H163.158L165.301 57.6019H170.762C171.592 57.6019 172.007 58.0188 171.869 58.8526L170.831 64.8282ZM168.757 64.3418L169.587 59.2695H167.029L166.199 64.3418H168.757Z" fill="white"/>
<path d="M177.745 65.8704H175.74L176.086 63.9249H174.496L173.389 70.8732H171.315L172.698 62.2573H174.772L174.703 62.6047C175.118 62.5352 175.602 62.4657 176.017 62.3962C176.57 62.3268 176.984 62.2573 177.33 62.2573C178.091 62.2573 178.367 62.6047 178.298 63.2995L177.745 65.8704Z" fill="white"/>
<path d="M184.036 69.831C183.898 70.5258 183.483 70.8732 182.723 70.8732H179.197C178.436 70.8732 178.091 70.5258 178.229 69.831L179.266 63.369C179.404 62.6742 179.819 62.3268 180.579 62.3268H184.105C184.866 62.3268 185.211 62.6742 185.073 63.369L184.589 66.5653L183.967 67.1211H180.649L180.234 69.553H182.17L182.377 68.0939H184.313L184.036 69.831ZM182.792 65.7315L183.137 63.6469H181.202L180.856 65.7315H182.792Z" fill="white"/>
<path d="M195.305 70.8732H193.3L194.406 63.8554H192.471L191.364 70.8037H189.36L190.466 63.7859H188.53L187.424 70.7343H185.35L186.732 62.1183H188.806L188.737 62.4657C189.221 62.3962 189.705 62.3268 190.189 62.2573C190.811 62.1878 191.295 62.1183 191.641 62.1183C192.125 62.1183 192.401 62.2573 192.471 62.5352C192.955 62.4657 193.508 62.3962 193.992 62.3268C194.683 62.2573 195.167 62.1878 195.513 62.1878C196.273 62.1878 196.55 62.5352 196.48 63.23L195.305 70.8732Z" fill="white"/>
<path d="M198.831 70.8732H196.826L198.209 62.2573H200.214L198.831 70.8732ZM200.49 61.0066H198.416L198.762 58.9916H200.836L200.49 61.0066Z" fill="white"/>
<path d="M206.367 70.8732H204.362L204.431 70.5953C203.947 70.6648 203.463 70.7343 202.979 70.8037C202.357 70.8732 201.873 70.9427 201.527 70.9427C200.767 70.9427 200.49 70.5953 200.559 69.9005L201.804 62.2573H203.809L202.703 69.2751L204.638 69.2056L205.744 62.2573H207.749L206.367 70.8732Z" fill="white"/>
<path d="M217.843 70.8732H215.838L216.944 63.8554H215.008L213.902 70.8037H211.828L212.934 63.7859H210.999L209.893 70.7343H207.818L209.201 62.1183H211.275L211.206 62.4657C211.69 62.3962 212.174 62.3268 212.658 62.2573C213.28 62.1878 213.764 62.1183 214.11 62.1183C214.594 62.1183 214.87 62.2573 214.939 62.5352C215.423 62.4657 215.976 62.3962 216.46 62.3268C217.152 62.2573 217.636 62.1878 217.981 62.1878C218.742 62.1878 219.018 62.5352 218.949 63.23L217.843 70.8732Z" fill="white"/>
<path d="M229.319 69.1362C229.181 69.831 228.835 70.3174 228.282 70.5953C227.868 70.8037 227.245 70.8732 226.485 70.8732C226.277 70.8732 226.07 70.8732 225.724 70.8732C225.379 70.8732 225.171 70.8732 225.033 70.8732L224.549 74H222.475L224.342 62.1878H226.416L226.347 62.5352C226.83 62.4657 227.314 62.3962 227.798 62.3268C228.421 62.2573 228.905 62.1878 229.25 62.1878C230.011 62.1878 230.287 62.5352 230.218 63.23L229.319 69.1362ZM227.384 68.6498L228.144 63.9249H226.208L225.379 69.2751H226.623C227.038 69.2751 227.314 69.0667 227.384 68.6498Z" fill="white"/>
<path d="M236.509 69.831C236.371 70.5258 235.956 70.8732 235.196 70.8732H231.67C230.909 70.8732 230.564 70.5258 230.702 69.831L231.739 63.369C231.877 62.6742 232.292 62.3268 233.053 62.3268H236.578C237.339 62.3268 237.685 62.6742 237.546 63.369L237.062 66.5653L236.44 67.1211H233.122L232.707 69.553H234.643L234.85 68.0939H236.786L236.509 69.831ZM235.196 65.7315L235.541 63.6469H233.606L233.26 65.7315H235.196Z" fill="white"/>
<path d="M241.764 70.8732H239.482C238.722 70.8732 238.376 70.5258 238.514 69.831L239.482 63.9249H238.514L238.791 62.2573H239.759L240.104 59.8948H242.109L241.764 62.2573H243.077L242.801 63.9249H241.487L240.657 69.2056H242.04L241.764 70.8732Z" fill="white"/>
<path d="M252.479 59.2H250.958L250.474 62.2573H251.788L251.512 63.9249H250.198L249.092 70.8732H247.087L248.193 63.9249H247.294L247.571 62.2573H248.47L249.092 58.5747C249.23 57.8798 249.645 57.5324 250.405 57.5324H252.825L252.479 59.2Z" fill="white"/>
<path d="M257.457 69.831C257.319 70.5258 256.904 70.8732 256.144 70.8732H252.479C251.719 70.8732 251.373 70.5258 251.512 69.831L252.549 63.369C252.687 62.6742 253.102 62.3268 253.862 62.3268H257.526C258.287 62.3268 258.632 62.6742 258.494 63.369L257.457 69.831ZM255.59 69.2751L256.42 63.9249H254.484L253.655 69.2751H255.59Z" fill="white"/>
<path d="M264.924 69.831C264.785 70.5258 264.371 70.8732 263.61 70.8732H259.946C259.185 70.8732 258.84 70.5258 258.978 69.831L260.015 63.369C260.153 62.6742 260.568 62.3268 261.329 62.3268H264.993C265.753 62.3268 266.099 62.6742 265.961 63.369L264.924 69.831ZM262.988 69.2751L263.817 63.9249H261.882L261.052 69.2751H262.988Z" fill="white"/>
<path d="M272.183 70.8732H270.178L270.247 70.5953C268.795 70.8037 268.035 70.9427 267.896 70.9427C267.412 70.9427 266.998 70.8038 266.79 70.5258C266.514 70.2479 266.445 69.831 266.514 69.3446L267.343 63.9944C267.482 63.2995 267.827 62.8131 268.38 62.5352C268.795 62.3268 269.417 62.2573 270.178 62.2573C270.316 62.2573 270.593 62.2573 270.938 62.2573C271.284 62.2573 271.491 62.2573 271.63 62.2573L272.39 57.5324H274.395L272.183 70.8732ZM270.454 69.2056L271.284 63.9249H270.04C269.556 63.9249 269.348 64.1333 269.279 64.5502L268.588 68.6498C268.519 69.0667 268.726 69.2751 269.141 69.2751C269.21 69.2751 269.625 69.2751 270.454 69.2056Z" fill="white"/>
</svg>
