<svg width="298" height="74" viewBox="0 0 298 74" fill="none" xmlns="http://www.w3.org/2000/svg">
<path d="M59.2701 6.7399L56.7121 23.0685H48.4159L47.7246 27.7239L53.3245 51.6958H62.1046L56.4355 28.2798C59.2009 28.2798 61.0676 28.1408 61.9663 27.7934C63.6947 27.1681 64.6626 25.7784 65.0082 23.5549L67.9119 4.79436C68.3958 1.59812 66.944 0.0694835 63.5564 0.0694835H41.2259L33.2755 51.6263H41.7099L48.6233 6.67042L59.2701 6.7399Z" fill="white"/>
<path d="M64.5243 51.6958H72.8204L76.0006 41.8986H86.5782L86.7856 51.6958H95.1509L92.2472 0H83.398L64.5243 51.6263V51.6958ZM85.8869 12.0901L86.4399 35.3671H78.2129L85.8869 12.0901Z" fill="white"/>
<path d="M111.743 23.0685C111.881 22.1652 111.881 20.9145 111.743 19.3164L120.247 51.8347H127.644L135.595 0.277934H127.368L123.081 28.3493C122.943 29.2526 122.943 30.5033 123.081 32.1014L114.37 0.277934H106.973L99.0224 51.8347H107.249L111.743 23.0685Z" fill="white"/>
<path d="M166.359 2.98779C164.631 1.2507 162.142 0.347418 158.824 0.347418L141.678 0.277934L133.728 51.8347L150.873 51.9042C154.192 51.9042 157.026 51.0704 159.239 49.3333C161.451 47.5962 162.834 45.2338 163.318 42.1765L168.226 10.0751C168.641 7.1568 168.019 4.72488 166.359 2.98779ZM159.515 11.3258L154.952 40.9258C154.537 43.8441 152.533 45.3033 149.145 45.3033H143.13L149.007 6.94835H155.298C158.547 6.94835 159.999 8.40751 159.515 11.3258Z" fill="white"/>
<path d="M280.785 17.0235L277.744 0.208485H268.756C268.687 0.277968 270.692 8.68548 274.771 25.431L260.253 51.5568L260.183 51.8347H269.171L278.158 33.6996L281.546 51.9042H290.672L284.242 25.292L297.931 0.625385L298 0.347455H289.082L280.785 17.0235Z" fill="white"/>
<path d="M232.045 41.7595C231.976 41.1342 231.976 38.9802 231.976 38.1464C231.976 37.3821 232.045 36.8957 231.769 36.8957C231.423 36.8262 231.423 37.7295 231.423 38.9802C231.423 40.2309 231.354 41.6206 231.562 42.0375C231.769 42.3849 232.115 42.3849 232.045 41.7595Z" fill="white"/>
<path d="M244.836 0.138864L222.505 0.0693818L214.555 51.6262H218.15C217.873 51.3482 217.596 50.9313 217.389 50.4449C217.043 49.5417 216.767 48.7079 217.113 48.4299C217.458 48.0825 217.804 48.152 218.219 48.6384C218.564 48.9858 218.979 49.1248 219.187 49.1248C218.564 47.2487 218.772 45.0947 218.979 43.6356C219.187 42.0374 219.532 38.5633 220.708 34.3248C222.021 29.6694 223.819 26.1257 224.994 23.9717C226.169 21.8177 226.722 18.0656 226.722 18.0656C226.722 18.0656 226.722 17.9961 226.722 17.9266C226.791 17.3708 226.861 16.9539 226.861 16.537C226.999 15.1473 227.344 13.1323 227.759 12.2985C227.759 12.229 227.759 12.09 227.759 12.0205C227.759 11.5342 227.552 11.2562 227.621 10.4919C227.759 9.65811 227.967 9.31069 228.451 8.68534C228.935 7.99051 228.935 7.71257 228.935 7.22618C229.004 6.7398 229.142 6.67031 229.419 6.87877C229.695 7.08722 230.041 8.12947 230.11 8.82431C230.179 9.17172 230.11 9.44966 230.041 9.72759C230.386 9.86656 231.009 9.86656 231.423 9.72759C231.493 9.51914 231.562 9.24121 231.7 9.03276C231.977 8.54637 232.253 8.12947 232.391 7.85154C232.53 7.50412 232.46 7.1567 232.737 7.22618C232.944 7.22618 233.083 8.05999 233.083 8.47689C233.083 8.82431 232.806 9.38018 232.806 9.72759C233.014 9.86656 233.29 9.86656 233.567 9.79708C233.981 9.79708 234.742 9.86656 235.295 10.4224C235.779 10.9783 235.641 11.1173 236.816 11.3257C237.991 11.4647 239.512 11.5342 239.789 11.8121C240.065 12.0206 239.996 12.5764 239.927 12.7154C239.858 12.8544 239.927 13.2018 239.927 13.8271C239.927 14.4525 239.374 15.3558 238.821 15.5642C238.199 15.7727 237.853 15.7727 237.507 15.9116C237.162 16.0506 237.092 16.259 236.539 16.1896C235.917 16.1201 234.88 15.9116 234.189 16.8844C233.843 17.3708 233.636 17.7877 233.497 18.2741C233.428 18.691 233.359 19.2468 233.359 19.7332C233.359 20.567 233.428 22.9295 234.12 24.736C234.811 26.6121 235.226 27.5849 235.364 30.0863C235.502 32.5877 235.018 34.2553 234.396 35.2975C233.843 36.2703 233.843 38.4243 233.774 41.2731C233.705 44.1219 233.774 46.6234 233.843 47.5961C233.843 48.152 233.912 48.9163 233.981 49.5417C234.051 49.8196 234.189 50.0975 234.327 50.3755C234.396 50.5839 234.534 50.6534 234.742 50.6534C235.088 50.6534 235.364 50.7229 235.71 50.7229C235.917 50.7229 236.125 50.7924 236.263 51.0008C236.332 51.0703 236.332 51.1398 236.401 51.1398C236.609 51.3482 236.885 51.6262 237.092 51.8346H243.245L237.576 28.4187C240.342 28.4187 242.208 28.2797 243.107 27.9323C244.836 27.3069 245.803 25.9173 246.149 23.6938L249.053 4.93323C249.675 1.73699 248.223 0.138864 244.836 0.138864Z" fill="white"/>
<path d="M255.897 0.138933L247.946 51.7652H256.381L264.331 0.208416L255.897 0.138933Z" fill="white"/>
<path d="M212.135 0.0694825L190.081 0L182.13 51.5568H190.565L193.468 32.8657H207.088C210.545 32.8657 212.48 31.2676 212.964 28.0713L216.559 4.72488C217.043 1.6676 215.522 0.0694825 212.135 0.0694825ZM204.737 26.3343H194.436L197.478 6.67042H207.779L204.737 26.3343Z" fill="white"/>
<path d="M31.478 24.0413L16.7523 23.9718L15.7844 30.5728H22.0757L19.8634 45.0253H8.87096L14.7474 6.67042H25.7398L24.3571 15.7728H32.7915L34.4507 4.79436C34.9347 1.59812 33.4829 0.0694835 30.0261 0.0694835L12.3968 0C9.00923 0 7.07346 1.59812 6.58952 4.72488L0.0908746 46.8319C-0.393067 49.9587 1.05876 51.5568 4.37722 51.5568L22.0757 51.6263C25.5324 51.6263 27.4682 50.0976 27.9521 46.9014L31.478 24.0413Z" fill="white"/>
<path d="M186.831 64.8282C186.693 65.662 186.209 66.0789 185.38 66.0789H181.992L181.232 70.9427H179.158L181.301 57.6019H186.762C187.592 57.6019 188.007 58.0188 187.869 58.8526L186.831 64.8282ZM184.757 64.3418L185.587 59.2695H183.029L182.199 64.3418H184.757Z" fill="white"/>
<path d="M193.745 65.8704H191.74L192.086 63.9249H190.496L189.389 70.8732H187.315L188.698 62.2573H190.772L190.703 62.6047C191.118 62.5352 191.602 62.4657 192.017 62.3962C192.57 62.3268 192.984 62.2573 193.33 62.2573C194.091 62.2573 194.367 62.6047 194.298 63.2995L193.745 65.8704Z" fill="white"/>
<path d="M200.036 69.831C199.898 70.5258 199.483 70.8732 198.723 70.8732H195.197C194.436 70.8732 194.091 70.5258 194.229 69.831L195.266 63.369C195.404 62.6742 195.819 62.3268 196.579 62.3268H200.105C200.866 62.3268 201.211 62.6742 201.073 63.369L200.589 66.5653L199.967 67.1211H196.649L196.234 69.553H198.17L198.377 68.0939H200.313L200.036 69.831ZM198.792 65.7315L199.137 63.6469H197.202L196.856 65.7315H198.792Z" fill="white"/>
<path d="M211.305 70.8732H209.3L210.406 63.8554H208.471L207.364 70.8037H205.36L206.466 63.7859H204.53L203.424 70.7343H201.35L202.732 62.1183H204.806L204.737 62.4657C205.221 62.3962 205.705 62.3268 206.189 62.2573C206.811 62.1878 207.295 62.1183 207.641 62.1183C208.125 62.1183 208.401 62.2573 208.471 62.5352C208.955 62.4657 209.508 62.3962 209.992 62.3268C210.683 62.2573 211.167 62.1878 211.513 62.1878C212.273 62.1878 212.55 62.5352 212.48 63.23L211.305 70.8732Z" fill="white"/>
<path d="M214.831 70.8732H212.826L214.209 62.2573H216.214L214.831 70.8732ZM216.49 61.0066H214.416L214.762 58.9916H216.836L216.49 61.0066Z" fill="white"/>
<path d="M222.367 70.8732H220.362L220.431 70.5953C219.947 70.6648 219.463 70.7343 218.979 70.8037C218.357 70.8732 217.873 70.9427 217.527 70.9427C216.767 70.9427 216.49 70.5953 216.559 69.9005L217.804 62.2573H219.809L218.703 69.2751L220.638 69.2056L221.744 62.2573H223.749L222.367 70.8732Z" fill="white"/>
<path d="M233.843 70.8732H231.838L232.944 63.8554H231.008L229.902 70.8037H227.828L228.934 63.7859H226.999L225.893 70.7343H223.818L225.201 62.1183H227.275L227.206 62.4657C227.69 62.3962 228.174 62.3268 228.658 62.2573C229.28 62.1878 229.764 62.1183 230.11 62.1183C230.594 62.1183 230.87 62.2573 230.939 62.5352C231.423 62.4657 231.976 62.3962 232.46 62.3268C233.152 62.2573 233.636 62.1878 233.981 62.1878C234.742 62.1878 235.018 62.5352 234.949 63.23L233.843 70.8732Z" fill="white"/>
<path d="M245.319 69.1362C245.181 69.831 244.835 70.3174 244.282 70.5953C243.868 70.8037 243.245 70.8732 242.485 70.8732C242.277 70.8732 242.07 70.8732 241.724 70.8732C241.379 70.8732 241.171 70.8732 241.033 70.8732L240.549 74H238.475L240.342 62.1878H242.416L242.347 62.5352C242.83 62.4657 243.314 62.3962 243.798 62.3268C244.421 62.2573 244.905 62.1878 245.25 62.1878C246.011 62.1878 246.287 62.5352 246.218 63.23L245.319 69.1362ZM243.384 68.6498L244.144 63.9249H242.208L241.379 69.2751H242.623C243.038 69.2751 243.314 69.0667 243.384 68.6498Z" fill="white"/>
<path d="M252.509 69.831C252.371 70.5258 251.956 70.8732 251.196 70.8732H247.67C246.909 70.8732 246.564 70.5258 246.702 69.831L247.739 63.369C247.877 62.6742 248.292 62.3268 249.053 62.3268H252.578C253.339 62.3268 253.685 62.6742 253.546 63.369L253.062 66.5653L252.44 67.1211H249.122L248.707 69.553H250.643L250.85 68.0939H252.786L252.509 69.831ZM251.196 65.7315L251.541 63.6469H249.606L249.26 65.7315H251.196Z" fill="white"/>
<path d="M257.764 70.8732H255.482C254.722 70.8732 254.376 70.5258 254.514 69.831L255.482 63.9249H254.514L254.791 62.2573H255.759L256.104 59.8948H258.109L257.764 62.2573H259.077L258.801 63.9249H257.487L256.657 69.2056H258.04L257.764 70.8732Z" fill="white"/>
<path d="M268.479 59.2H266.958L266.474 62.2573H267.788L267.512 63.9249H266.198L265.092 70.8732H263.087L264.193 63.9249H263.294L263.571 62.2573H264.47L265.092 58.5747C265.23 57.8798 265.645 57.5324 266.405 57.5324H268.825L268.479 59.2Z" fill="white"/>
<path d="M273.457 69.831C273.319 70.5258 272.904 70.8732 272.144 70.8732H268.479C267.719 70.8732 267.373 70.5258 267.512 69.831L268.549 63.369C268.687 62.6742 269.102 62.3268 269.862 62.3268H273.526C274.287 62.3268 274.632 62.6742 274.494 63.369L273.457 69.831ZM271.59 69.2751L272.42 63.9249H270.484L269.655 69.2751H271.59Z" fill="white"/>
<path d="M280.924 69.831C280.785 70.5258 280.371 70.8732 279.61 70.8732H275.946C275.185 70.8732 274.84 70.5258 274.978 69.831L276.015 63.369C276.153 62.6742 276.568 62.3268 277.329 62.3268H280.993C281.753 62.3268 282.099 62.6742 281.961 63.369L280.924 69.831ZM278.988 69.2751L279.817 63.9249H277.882L277.052 69.2751H278.988Z" fill="white"/>
<path d="M288.183 70.8732H286.178L286.247 70.5953C284.795 70.8037 284.035 70.9427 283.896 70.9427C283.412 70.9427 282.998 70.8037 282.79 70.5258C282.514 70.2479 282.445 69.831 282.514 69.3446L283.343 63.9944C283.482 63.2995 283.827 62.8131 284.38 62.5352C284.795 62.3268 285.417 62.2573 286.178 62.2573C286.316 62.2573 286.593 62.2573 286.938 62.2573C287.284 62.2573 287.491 62.2573 287.63 62.2573L288.39 57.5324H290.395L288.183 70.8732ZM286.454 69.2056L287.284 63.9249H286.04C285.556 63.9249 285.348 64.1333 285.279 64.5502L284.588 68.6498C284.519 69.0667 284.726 69.2751 285.141 69.2751C285.21 69.2751 285.625 69.2751 286.454 69.2056Z" fill="white"/>
</svg>
