<?xml version="1.0" encoding="UTF-8"?><!DOCTYPE svg PUBLIC "-//W3C//DTD SVG 1.1//EN" "http://www.w3.org/Graphics/SVG/1.1/DTD/svg11.dtd"><svg xmlns="http://www.w3.org/2000/svg" xmlns:xlink="http://www.w3.org/1999/xlink"><symbol id="icon-mail" viewBox="0 0 17 13">
<path d="M14.9823 0H2.01775C0.905173 0 0 0.875201 0 1.95094V11.0491C0 12.1248 0.905173 13 2.01775 13H14.9823C16.0949 13 17 12.1248 17 11.0491V1.95094C17 0.875201 16.0949 0 14.9823 0ZM14.9823 11.2776H2.01775C1.85421 11.2776 1.71078 11.1709 1.71078 11.0491V3.15402L7.5743 8.13808C7.69451 8.2403 7.84737 8.29656 8.00477 8.29656L8.99505 8.29661C9.15236 8.29661 9.30532 8.2403 9.42557 8.13808L15.2894 3.15384V11.0492C15.2893 11.1709 15.1458 11.2776 14.9823 11.2776ZM8.50002 6.58638L2.79702 1.72236H14.203L8.50002 6.58638Z" fill="#453E8D"/>
</symbol><symbol id="icon-next" viewBox="0 0 6 10">
<path d="M1 1L5 5L1 9" stroke="black"/>
</symbol><symbol id="icon-phone" viewBox="0 0 12 20">
<path d="M10.2674 0H1.35086C0.608 0 0 0.607429 0 1.35086V18.6486C0 19.392 0.608 20 1.35086 20H10.2674C11.0103 20 11.6183 19.3931 11.6183 18.6491V1.35086C11.6183 0.607429 11.0103 0 10.2674 0ZM4.38286 0.973714H7.23543C7.32572 0.973714 7.39886 1.04686 7.39886 1.13771C7.39886 1.228 7.32572 1.30114 7.23543 1.30114H4.38286C4.29257 1.30114 4.21943 1.228 4.21943 1.13771C4.21943 1.04686 4.29257 0.973714 4.38286 0.973714ZM5.80914 19.3246C5.436 19.3246 5.13372 19.0223 5.13372 18.6486C5.13372 18.2749 5.436 17.9731 5.80914 17.9731C6.18229 17.9731 6.48457 18.2749 6.48457 18.6486C6.48457 19.0223 6.18229 19.3246 5.80914 19.3246ZM10.6783 17.5H0.94V2.14229H10.6783V17.5Z" fill="black"/>
</symbol><symbol id="icon-prev" viewBox="0 0 6 10">
<path d="M5 9L1 5L5 1" stroke="black"/>
</symbol></svg>